<?xml version="1.0" encoding="UTF-8"?>
<svg width="20px" height="19px" viewBox="0 0 20 19" version="1.1" xmlns="http://www.w3.org/2000/svg" xmlns:xlink="http://www.w3.org/1999/xlink">
    <!-- Generator: Sketch 52.3 (67297) - http://www.bohemiancoding.com/sketch -->
    <title>Path</title>
    <desc>Created with Sketch.</desc>
    <g id="Page-1" stroke="none" stroke-width="1" fill="none" fill-rule="evenodd">
        <g id="Artboard" transform="translate(-740.000000, -23.000000)" fill="#323233">
            <path d="M759.914601,23.5262784 C760.075352,23.8951231 760.00916,24.2099905 759.716025,24.4708807 L752.723324,31.1235795 L752.723324,41.1363636 C752.723324,41.5142045 752.538932,41.7795928 752.170149,41.9325284 C752.047221,41.9775095 751.929021,42 751.815549,42 C751.560238,42 751.347478,41.914536 751.17727,41.743608 L747.546172,38.2890625 C747.366508,38.1181345 747.276676,37.9157197 747.276676,37.6818182 L747.276676,31.1235795 L740.283975,24.4708807 C739.99084,24.2099905 739.924648,23.8951231 740.085399,23.5262784 C740.246151,23.1754261 740.525103,23 740.922254,23 L759.077746,23 C759.474897,23 759.753849,23.1754261 759.914601,23.5262784 Z" id="Path"></path>
        </g>
    </g>
</svg>