<svg xmlns="http://www.w3.org/2000/svg" viewBox="0 0 640 640" x="0px" y="0px">
    <path fill="#1A1A1A" d="M270.61,17.93c-118-8.14-228,70.63-261.21,186.41C-1.67,242.92-.48,282.17.8,321.46,2.65,378.6,20,430.63,54.31,476.64c12.59,16.85,25.94,21,45.9,14.25,15.42-5.23,30.7-10.83,46-16.26,22.16-7.84,25.86-17.15,14.85-37.64C135.2,388.75,115.77,338.24,107,283.9c-2.76-17.2-13.66-23.34-30.3-17.59-12.26,4.24-24.42,8.75-38.39,13.78,1.51-81.52,32.7-145.86,100.22-188.62,75.12-47.56,153.8-48.54,229.86-2.56C438.52,131.27,471.2,196.53,472.72,280c-14.29-4.88-26.88-9.4-39.61-13.49-15.4-4.94-25.75,1.3-28.9,17.06-2.18,10.9-3.9,21.9-6.51,32.69-10.61,43.88-27.92,85.14-49.41,124.75-8.36,15.41-4.53,26.36,11.21,32.15,18.25,6.72,36.53,13.38,55,19.38,16.38,5.32,30.85.47,41-13.51a352.43,352.43,0,0,0,19.55-29.88c38.14-65.44,41.57-137.21,33.06-209.35C493.78,118,393.85,26.43,270.61,17.93Z"/>
</svg>
