<svg xmlns="http://www.w3.org/2000/svg" xmlns:xlink="http://www.w3.org/1999/xlink" version="1.1" x="0px" y="0px" viewBox="0 0 100 100" enable-background="new 0 0 100 100" xml:space="preserve">
    <path fill="#1A1A1A" d="M65.132,7.158H34.863c-3.666,0-6.636,2.974-6.636,6.636v72.412c0,3.664,2.97,6.636,6.636,6.636h30.269  c3.665,0,6.64-2.972,6.64-6.636V13.794C71.772,10.132,68.798,7.158,65.132,7.158z M44.295,12.279h11.412  c0.321,0,0.579,0.264,0.579,0.583c0,0.324-0.258,0.585-0.579,0.585H44.295c-0.32,0-0.583-0.261-0.583-0.585  C43.712,12.542,43.975,12.279,44.295,12.279z M49.999,87.953c-2.123,0-3.841-1.722-3.841-3.841c0-2.123,1.718-3.843,3.841-3.843  c2.121,0,3.841,1.719,3.841,3.843C53.84,86.231,52.12,87.953,49.999,87.953z M68.86,76.079H31.135v-55.88H68.86V76.079z"/>
</svg>
