<?xml version="1.0" encoding="UTF-8"?>
<svg width="20px" height="19px" viewBox="0 0 20 19" version="1.1" xmlns="http://www.w3.org/2000/svg" xmlns:xlink="http://www.w3.org/1999/xlink">
    <!-- Generator: Sketch 52.3 (67297) - http://www.bohemiancoding.com/sketch -->
    <title>Magnifying Glass</title>
    <desc>Created with Sketch.</desc>
    <g id="Page-1" stroke="none" stroke-width="1" fill="none" fill-rule="evenodd">
        <g id="REFERENCE" transform="translate(-62.000000, -51.000000)" fill="#000000" fill-rule="nonzero">
            <g id="Search-Input" transform="translate(62.000000, 51.000000)">
                <g id="Magnifying-Glass">
                    <path d="M18.9428625,16.6756117 C19.1827993,16.8955538 19.1827993,17.2754538 18.9428625,17.5153907 L17.6232098,18.8350434 C17.4032676,19.0549855 17.0233676,19.0549855 16.8034255,18.8350434 L12.0246831,14.056301 C8.98548285,16.0557748 4.94654573,15.65588 2.3672245,13.0765588 C-0.611991499,10.0973428 -0.611991499,5.23862142 2.3672245,2.23941068 C3.80684565,0.799789529 5.72634052,-7.10542736e-15 7.78579856,-7.10542736e-15 C9.84525659,-7.10542736e-15 11.7647515,0.799789529 13.2243674,2.23941068 C15.8036886,4.81873191 16.2035833,8.85766903 14.1841148,11.8968692 L18.9428625,16.6756117 Z M11.4648304,11.3370166 C13.484299,9.31754801 13.484299,6.01841621 11.4648304,3.97895291 C9.42536709,1.95948435 6.12623528,1.95948435 4.10676672,3.97895291 C2.08729816,6.01841621 2.08729816,9.31754801 4.10676672,11.3370166 C6.14623002,13.3564851 9.44536183,13.3564851 11.4648304,11.3370166 Z"></path>
                </g>
            </g>
        </g>
    </g>
</svg>