<svg width="24" height="24" viewBox="0 0 24 24" fill="none" xmlns="http://www.w3.org/2000/svg">
<g clip-path="url(#clip0_524_24976)">
<rect width="24" height="24" fill="white" fill-opacity="0.01"/>
<path d="M12.0029 2.0011C6.48293 2.0011 2.00293 6.4811 2.00293 12.0011C2.00293 17.5211 6.48293 22.0011 12.0029 22.0011C17.5229 22.0011 22.0029 17.5211 22.0029 12.0011C22.0029 6.4811 17.5229 2.0011 12.0029 2.0011ZM13.0029 19.0011H11.0029V17.0011H13.0029V19.0011ZM15.0729 11.2511L14.1729 12.1711C13.4529 12.9011 13.0029 13.5011 13.0029 15.0011H11.0029V14.5011C11.0029 13.4011 11.4529 12.4011 12.1729 11.6711L13.4129 10.4111C13.7829 10.0511 14.0029 9.5511 14.0029 9.0011C14.0029 7.9011 13.1029 7.0011 12.0029 7.0011C10.9029 7.0011 10.0029 7.9011 10.0029 9.0011H8.00293C8.00293 6.7911 9.79293 5.0011 12.0029 5.0011C14.2129 5.0011 16.0029 6.7911 16.0029 9.0011C16.0029 9.8811 15.6429 10.6811 15.0729 11.2511Z" fill="white"/>
</g>
<defs>
<clipPath id="clip0_524_24976">
<rect width="24" height="24" fill="white"/>
</clipPath>
</defs>
</svg>
